<svg class="main-svg" xmlns="http://www.w3.org/2000/svg" xmlns:xlink="http://www.w3.org/1999/xlink" width="700" height="450" style="" viewBox="0 0 700 450"><rect x="0" y="0" width="700" height="450" style="fill: rgb(255, 255, 255); fill-opacity: 1;"/><defs id="defs-d90b6a"><g class="clips"><clipPath id="clipd90b6axyplot" class="plotclip"><rect width="493" height="320"/></clipPath><clipPath class="axesclip" id="clipd90b6ax"><rect x="80" y="0" width="493" height="450"/></clipPath><clipPath class="axesclip" id="clipd90b6ay"><rect x="0" y="50" width="700" height="320"/></clipPath><clipPath class="axesclip" id="clipd90b6axy"><rect x="80" y="50" width="493" height="320"/></clipPath></g><g class="gradients"/><g class="patterns"/></defs><g class="bglayer"/><g class="layer-below"><g class="imagelayer"/><g class="shapelayer"/></g><g class="cartesianlayer"><g class="subplot xy"><g class="layer-subplot"><g class="shapelayer"/><g class="imagelayer"/></g><g class="minor-gridlayer"><g class="x"/><g class="y"/></g><g class="gridlayer"><g class="x"><path class="xgrid crisp" transform="translate(108.4,0)" d="M0,50v320" style="stroke: rgb(238, 238, 238); stroke-opacity: 1; stroke-width: 1px;"/><path class="xgrid crisp" transform="translate(195.64,0)" d="M0,50v320" style="stroke: rgb(238, 238, 238); stroke-opacity: 1; stroke-width: 1px;"/><path class="xgrid crisp" transform="translate(282.88,0)" d="M0,50v320" style="stroke: rgb(238, 238, 238); stroke-opacity: 1; stroke-width: 1px;"/><path class="xgrid crisp" transform="translate(370.12,0)" d="M0,50v320" style="stroke: rgb(238, 238, 238); stroke-opacity: 1; stroke-width: 1px;"/><path class="xgrid crisp" transform="translate(457.36,0)" d="M0,50v320" style="stroke: rgb(238, 238, 238); stroke-opacity: 1; stroke-width: 1px;"/><path class="xgrid crisp" transform="translate(544.6,0)" d="M0,50v320" style="stroke: rgb(238, 238, 238); stroke-opacity: 1; stroke-width: 1px;"/></g><g class="y"><path class="ygrid crisp" transform="translate(0,278.37)" d="M80,0h493" style="stroke: rgb(238, 238, 238); stroke-opacity: 1; stroke-width: 1px;"/><path class="ygrid crisp" transform="translate(0,206.54)" d="M80,0h493" style="stroke: rgb(238, 238, 238); stroke-opacity: 1; stroke-width: 1px;"/><path class="ygrid crisp" transform="translate(0,134.7)" d="M80,0h493" style="stroke: rgb(238, 238, 238); stroke-opacity: 1; stroke-width: 1px;"/><path class="ygrid crisp" transform="translate(0,62.87)" d="M80,0h493" style="stroke: rgb(238, 238, 238); stroke-opacity: 1; stroke-width: 1px;"/></g></g><g class="zerolinelayer"><path class="yzl zl crisp" transform="translate(0,350.21)" d="M80,0h493" style="stroke: rgb(68, 68, 68); stroke-opacity: 1; stroke-width: 1px;"/></g><path class="xlines-below"/><path class="ylines-below"/><g class="overlines-below"/><g class="xaxislayer-below"/><g class="yaxislayer-below"/><g class="overaxes-below"/><g class="plot" transform="translate(80,50)" clip-path="url(#clipd90b6axyplot)"><g class="scatterlayer mlayer"><g class="trace scatter tracecae5ac" style="stroke-miterlimit: 2; opacity: 1;"><g class="fills"/><g class="errorbars"/><g class="lines"><path class="js-line" style="vector-effect: non-scaling-stroke; fill: none; stroke: rgb(1, 135, 134); stroke-opacity: 1; stroke-width: 2px; opacity: 1;" d="M28.4,300.21L115.64,300.25L202.88,276.1L290.12,219.95L377.36,205.6L464.6,100.68"/></g><g class="points"><path class="point" transform="translate(28.4,300.21)" style="opacity: 1; stroke-width: 0px; fill: rgb(1, 135, 134); fill-opacity: 1;" d="M3,0A3,3 0 1,1 0,-3A3,3 0 0,1 3,0Z"/><path class="point" transform="translate(115.64,300.25)" style="opacity: 1; stroke-width: 0px; fill: rgb(1, 135, 134); fill-opacity: 1;" d="M3,0A3,3 0 1,1 0,-3A3,3 0 0,1 3,0Z"/><path class="point" transform="translate(202.88,276.1)" style="opacity: 1; stroke-width: 0px; fill: rgb(1, 135, 134); fill-opacity: 1;" d="M3,0A3,3 0 1,1 0,-3A3,3 0 0,1 3,0Z"/><path class="point" transform="translate(290.12,219.95)" style="opacity: 1; stroke-width: 0px; fill: rgb(1, 135, 134); fill-opacity: 1;" d="M3,0A3,3 0 1,1 0,-3A3,3 0 0,1 3,0Z"/><path class="point" transform="translate(377.36,205.6)" style="opacity: 1; stroke-width: 0px; fill: rgb(1, 135, 134); fill-opacity: 1;" d="M3,0A3,3 0 1,1 0,-3A3,3 0 0,1 3,0Z"/><path class="point" transform="translate(464.6,100.68)" style="opacity: 1; stroke-width: 0px; fill: rgb(1, 135, 134); fill-opacity: 1;" d="M3,0A3,3 0 1,1 0,-3A3,3 0 0,1 3,0Z"/></g><g class="text"/></g><g class="trace scatter tracee3477e" style="stroke-miterlimit: 2; opacity: 1;"><g class="fills"/><g class="errorbars"/><g class="lines"><path class="js-line" style="vector-effect: non-scaling-stroke; fill: none; stroke: rgb(135, 1, 3); stroke-opacity: 1; stroke-width: 2px; opacity: 1;" d="M28.4,300.21L115.64,248.99L202.88,234.56L290.12,105.33L377.36,98.65L464.6,19.75"/></g><g class="points"><path class="point" transform="translate(28.4,300.21)" style="opacity: 1; stroke-width: 0px; fill: rgb(135, 1, 3); fill-opacity: 1;" d="M3,0A3,3 0 1,1 0,-3A3,3 0 0,1 3,0Z"/><path class="point" transform="translate(115.64,248.99)" style="opacity: 1; stroke-width: 0px; fill: rgb(135, 1, 3); fill-opacity: 1;" d="M3,0A3,3 0 1,1 0,-3A3,3 0 0,1 3,0Z"/><path class="point" transform="translate(202.88,234.56)" style="opacity: 1; stroke-width: 0px; fill: rgb(135, 1, 3); fill-opacity: 1;" d="M3,0A3,3 0 1,1 0,-3A3,3 0 0,1 3,0Z"/><path class="point" transform="translate(290.12,105.33)" style="opacity: 1; stroke-width: 0px; fill: rgb(135, 1, 3); fill-opacity: 1;" d="M3,0A3,3 0 1,1 0,-3A3,3 0 0,1 3,0Z"/><path class="point" transform="translate(377.36,98.65)" style="opacity: 1; stroke-width: 0px; fill: rgb(135, 1, 3); fill-opacity: 1;" d="M3,0A3,3 0 1,1 0,-3A3,3 0 0,1 3,0Z"/><path class="point" transform="translate(464.6,19.75)" style="opacity: 1; stroke-width: 0px; fill: rgb(135, 1, 3); fill-opacity: 1;" d="M3,0A3,3 0 1,1 0,-3A3,3 0 0,1 3,0Z"/></g><g class="text"/></g><g class="trace scatter trace9c97ad" style="stroke-miterlimit: 2; opacity: 1;"><g class="fills"/><g class="errorbars"/><g class="lines"><path class="js-line" style="vector-effect: non-scaling-stroke; fill: none; stroke: rgb(21, 147, 114); stroke-opacity: 1; stroke-width: 2px; opacity: 1;" d="M28.4,300.21L115.64,300.24L202.88,287.81L290.12,260.1L377.36,239.35L464.6,217.38"/></g><g class="points"><path class="point" transform="translate(28.4,300.21)" style="opacity: 1; stroke-width: 0px; fill: rgb(21, 147, 114); fill-opacity: 1;" d="M3,0A3,3 0 1,1 0,-3A3,3 0 0,1 3,0Z"/><path class="point" transform="translate(115.64,300.24)" style="opacity: 1; stroke-width: 0px; fill: rgb(21, 147, 114); fill-opacity: 1;" d="M3,0A3,3 0 1,1 0,-3A3,3 0 0,1 3,0Z"/><path class="point" transform="translate(202.88,287.81)" style="opacity: 1; stroke-width: 0px; fill: rgb(21, 147, 114); fill-opacity: 1;" d="M3,0A3,3 0 1,1 0,-3A3,3 0 0,1 3,0Z"/><path class="point" transform="translate(290.12,260.1)" style="opacity: 1; stroke-width: 0px; fill: rgb(21, 147, 114); fill-opacity: 1;" d="M3,0A3,3 0 1,1 0,-3A3,3 0 0,1 3,0Z"/><path class="point" transform="translate(377.36,239.35)" style="opacity: 1; stroke-width: 0px; fill: rgb(21, 147, 114); fill-opacity: 1;" d="M3,0A3,3 0 1,1 0,-3A3,3 0 0,1 3,0Z"/><path class="point" transform="translate(464.6,217.38)" style="opacity: 1; stroke-width: 0px; fill: rgb(21, 147, 114); fill-opacity: 1;" d="M3,0A3,3 0 1,1 0,-3A3,3 0 0,1 3,0Z"/></g><g class="text"/></g><g class="trace scatter trace7e8333" style="stroke-miterlimit: 2; opacity: 1;"><g class="fills"/><g class="errorbars"/><g class="lines"><path class="js-line" style="vector-effect: non-scaling-stroke; fill: none; stroke: rgb(207, 153, 154); stroke-opacity: 1; stroke-width: 2px; opacity: 1;" d="M28.4,300.21L115.64,297.59L202.88,291.49L290.12,255.08L377.36,287.76L464.6,243.31"/></g><g class="points"><path class="point" transform="translate(28.4,300.21)" style="opacity: 1; stroke-width: 0px; fill: rgb(207, 153, 154); fill-opacity: 1;" d="M3,0A3,3 0 1,1 0,-3A3,3 0 0,1 3,0Z"/><path class="point" transform="translate(115.64,297.59)" style="opacity: 1; stroke-width: 0px; fill: rgb(207, 153, 154); fill-opacity: 1;" d="M3,0A3,3 0 1,1 0,-3A3,3 0 0,1 3,0Z"/><path class="point" transform="translate(202.88,291.49)" style="opacity: 1; stroke-width: 0px; fill: rgb(207, 153, 154); fill-opacity: 1;" d="M3,0A3,3 0 1,1 0,-3A3,3 0 0,1 3,0Z"/><path class="point" transform="translate(290.12,255.08)" style="opacity: 1; stroke-width: 0px; fill: rgb(207, 153, 154); fill-opacity: 1;" d="M3,0A3,3 0 1,1 0,-3A3,3 0 0,1 3,0Z"/><path class="point" transform="translate(377.36,287.76)" style="opacity: 1; stroke-width: 0px; fill: rgb(207, 153, 154); fill-opacity: 1;" d="M3,0A3,3 0 1,1 0,-3A3,3 0 0,1 3,0Z"/><path class="point" transform="translate(464.6,243.31)" style="opacity: 1; stroke-width: 0px; fill: rgb(207, 153, 154); fill-opacity: 1;" d="M3,0A3,3 0 1,1 0,-3A3,3 0 0,1 3,0Z"/></g><g class="text"/></g><g class="trace scatter tracec7a568" style="stroke-miterlimit: 2; opacity: 1;"><g class="fills"/><g class="errorbars"/><g class="lines"><path class="js-line" style="vector-effect: non-scaling-stroke; fill: none; stroke: rgb(153, 207, 207); stroke-opacity: 1; stroke-width: 2px; opacity: 1;" d="M28.4,300.21L115.64,289.72L202.88,244.23L290.12,82.92L377.36,79.49L464.6,44.97"/></g><g class="points"><path class="point" transform="translate(28.4,300.21)" style="opacity: 1; stroke-width: 0px; fill: rgb(153, 207, 207); fill-opacity: 1;" d="M3,0A3,3 0 1,1 0,-3A3,3 0 0,1 3,0Z"/><path class="point" transform="translate(115.64,289.72)" style="opacity: 1; stroke-width: 0px; fill: rgb(153, 207, 207); fill-opacity: 1;" d="M3,0A3,3 0 1,1 0,-3A3,3 0 0,1 3,0Z"/><path class="point" transform="translate(202.88,244.23)" style="opacity: 1; stroke-width: 0px; fill: rgb(153, 207, 207); fill-opacity: 1;" d="M3,0A3,3 0 1,1 0,-3A3,3 0 0,1 3,0Z"/><path class="point" transform="translate(290.12,82.92)" style="opacity: 1; stroke-width: 0px; fill: rgb(153, 207, 207); fill-opacity: 1;" d="M3,0A3,3 0 1,1 0,-3A3,3 0 0,1 3,0Z"/><path class="point" transform="translate(377.36,79.49)" style="opacity: 1; stroke-width: 0px; fill: rgb(153, 207, 207); fill-opacity: 1;" d="M3,0A3,3 0 1,1 0,-3A3,3 0 0,1 3,0Z"/><path class="point" transform="translate(464.6,44.97)" style="opacity: 1; stroke-width: 0px; fill: rgb(153, 207, 207); fill-opacity: 1;" d="M3,0A3,3 0 1,1 0,-3A3,3 0 0,1 3,0Z"/></g><g class="text"/></g><g class="trace scatter traceb46996" style="stroke-miterlimit: 2; opacity: 1;"><g class="fills"/><g class="errorbars"/><g class="lines"><path class="js-line" style="vector-effect: non-scaling-stroke; fill: none; stroke: rgb(1, 95, 94); stroke-opacity: 1; stroke-width: 2px; opacity: 1;" d="M28.4,300.21L115.64,297.11L202.88,297.58L290.12,293.75L377.36,293.72L464.6,283.86"/></g><g class="points"><path class="point" transform="translate(28.4,300.21)" style="opacity: 1; stroke-width: 0px; fill: rgb(1, 95, 94); fill-opacity: 1;" d="M3,0A3,3 0 1,1 0,-3A3,3 0 0,1 3,0Z"/><path class="point" transform="translate(115.64,297.11)" style="opacity: 1; stroke-width: 0px; fill: rgb(1, 95, 94); fill-opacity: 1;" d="M3,0A3,3 0 1,1 0,-3A3,3 0 0,1 3,0Z"/><path class="point" transform="translate(202.88,297.58)" style="opacity: 1; stroke-width: 0px; fill: rgb(1, 95, 94); fill-opacity: 1;" d="M3,0A3,3 0 1,1 0,-3A3,3 0 0,1 3,0Z"/><path class="point" transform="translate(290.12,293.75)" style="opacity: 1; stroke-width: 0px; fill: rgb(1, 95, 94); fill-opacity: 1;" d="M3,0A3,3 0 1,1 0,-3A3,3 0 0,1 3,0Z"/><path class="point" transform="translate(377.36,293.72)" style="opacity: 1; stroke-width: 0px; fill: rgb(1, 95, 94); fill-opacity: 1;" d="M3,0A3,3 0 1,1 0,-3A3,3 0 0,1 3,0Z"/><path class="point" transform="translate(464.6,283.86)" style="opacity: 1; stroke-width: 0px; fill: rgb(1, 95, 94); fill-opacity: 1;" d="M3,0A3,3 0 1,1 0,-3A3,3 0 0,1 3,0Z"/></g><g class="text"/></g></g></g><g class="overplot"/><path class="xlines-above crisp" style="fill: none;" d="M0,0"/><path class="ylines-above crisp" style="fill: none;" d="M0,0"/><g class="overlines-above"/><g class="xaxislayer-above"><g class="xtick"><text text-anchor="middle" x="0" y="385" style="font-family: Arial; font-size: 14px; fill: rgb(0, 0, 0); fill-opacity: 1; white-space: pre; opacity: 1;" transform="translate(108.4,0)">T0</text></g><g class="xtick"><text text-anchor="middle" x="0" y="385" style="font-family: Arial; font-size: 14px; fill: rgb(0, 0, 0); fill-opacity: 1; white-space: pre; opacity: 1;" transform="translate(195.64,0)">T2</text></g><g class="xtick"><text text-anchor="middle" x="0" y="385" style="font-family: Arial; font-size: 14px; fill: rgb(0, 0, 0); fill-opacity: 1; white-space: pre; opacity: 1;" transform="translate(282.88,0)">T6</text></g><g class="xtick"><text text-anchor="middle" x="0" y="385" style="font-family: Arial; font-size: 14px; fill: rgb(0, 0, 0); fill-opacity: 1; white-space: pre; opacity: 1;" transform="translate(370.12,0)">T24</text></g><g class="xtick"><text text-anchor="middle" x="0" y="385" style="font-family: Arial; font-size: 14px; fill: rgb(0, 0, 0); fill-opacity: 1; white-space: pre; opacity: 1;" transform="translate(457.36,0)">T48</text></g><g class="xtick"><text text-anchor="middle" x="0" y="385" style="font-family: Arial; font-size: 14px; fill: rgb(0, 0, 0); fill-opacity: 1; white-space: pre; opacity: 1;" transform="translate(544.6,0)">T72</text></g></g><g class="yaxislayer-above"><g class="ytick"><text text-anchor="end" x="79" y="4.8999999999999995" style="font-family: Arial; font-size: 14px; fill: rgb(0, 0, 0); fill-opacity: 1; white-space: pre; opacity: 1;" transform="translate(0,350.21)">0</text></g><g class="ytick"><text text-anchor="end" x="79" y="4.8999999999999995" style="font-family: Arial; font-size: 14px; fill: rgb(0, 0, 0); fill-opacity: 1; white-space: pre; opacity: 1;" transform="translate(0,278.37)">5</text></g><g class="ytick"><text text-anchor="end" x="79" y="4.8999999999999995" style="font-family: Arial; font-size: 14px; fill: rgb(0, 0, 0); fill-opacity: 1; white-space: pre; opacity: 1;" transform="translate(0,206.54)">10</text></g><g class="ytick"><text text-anchor="end" x="79" y="4.8999999999999995" style="font-family: Arial; font-size: 14px; fill: rgb(0, 0, 0); fill-opacity: 1; white-space: pre; opacity: 1;" transform="translate(0,134.7)">15</text></g><g class="ytick"><text text-anchor="end" x="79" y="4.8999999999999995" style="font-family: Arial; font-size: 14px; fill: rgb(0, 0, 0); fill-opacity: 1; white-space: pre; opacity: 1;" transform="translate(0,62.87)">20</text></g></g><g class="overaxes-above"/></g></g><g class="polarlayer"/><g class="smithlayer"/><g class="ternarylayer"/><g class="geolayer"/><g class="funnelarealayer"/><g class="pielayer"/><g class="iciclelayer"/><g class="treemaplayer"/><g class="sunburstlayer"/><g class="glimages"/><defs id="topdefs-d90b6a"><g class="clips"/><clipPath id="legendd90b6a"><rect width="105" height="138" x="0" y="0"/></clipPath></defs><g class="layer-above"><g class="imagelayer"/><g class="shapelayer"/></g><g class="infolayer"><g class="legend" pointer-events="all" transform="translate(582.86,50)"><rect class="bg" shape-rendering="crispEdges" style="stroke: rgb(68, 68, 68); stroke-opacity: 1; fill: rgb(255, 255, 255); fill-opacity: 1; stroke-width: 0px;" width="105" height="138" x="0" y="0"/><g class="scrollbox" transform="" clip-path="url(#legendd90b6a)"><g class="groups"><g class="traces" style="opacity: 1;" transform="translate(0,15.6)"><text class="legendtext" text-anchor="start" style="font-family: Arial; font-size: 14px; fill: rgb(0, 0, 0); fill-opacity: 1; white-space: pre;" x="40" y="5.46">BTG3 S</text><g class="layers" style="opacity: 1;"><g class="legendfill"/><g class="legendlines"><path class="js-line" d="M5,0h30" style="fill: none; stroke: rgb(1, 135, 134); stroke-opacity: 1; stroke-width: 2px;"/></g><g class="legendsymbols"><g class="legendpoints"><path class="scatterpts" transform="translate(20,0)" style="opacity: 1; stroke-width: 0px; fill: rgb(1, 135, 134); fill-opacity: 1;" d="M3,0A3,3 0 1,1 0,-3A3,3 0 0,1 3,0Z"/></g></g></g><rect class="legendtoggle" style="fill: rgb(0, 0, 0); fill-opacity: 0;" x="0" y="-10.6" width="100" height="21.2"/></g><g class="traces" style="opacity: 1;" transform="translate(0,36.8)"><text class="legendtext" text-anchor="start" style="font-family: Arial; font-size: 14px; fill: rgb(0, 0, 0); fill-opacity: 1; white-space: pre;" x="40" y="5.46">CD69 S</text><g class="layers" style="opacity: 1;"><g class="legendfill"/><g class="legendlines"><path class="js-line" d="M5,0h30" style="fill: none; stroke: rgb(135, 1, 3); stroke-opacity: 1; stroke-width: 2px;"/></g><g class="legendsymbols"><g class="legendpoints"><path class="scatterpts" transform="translate(20,0)" style="opacity: 1; stroke-width: 0px; fill: rgb(135, 1, 3); fill-opacity: 1;" d="M3,0A3,3 0 1,1 0,-3A3,3 0 0,1 3,0Z"/></g></g></g><rect class="legendtoggle" style="fill: rgb(0, 0, 0); fill-opacity: 0;" x="0" y="-10.6" width="100" height="21.2"/></g><g class="traces" style="opacity: 1;" transform="translate(0,58)"><text class="legendtext" text-anchor="start" style="font-family: Arial; font-size: 14px; fill: rgb(0, 0, 0); fill-opacity: 1; white-space: pre;" x="40" y="5.46">CD83 S</text><g class="layers" style="opacity: 1;"><g class="legendfill"/><g class="legendlines"><path class="js-line" d="M5,0h30" style="fill: none; stroke: rgb(21, 147, 114); stroke-opacity: 1; stroke-width: 2px;"/></g><g class="legendsymbols"><g class="legendpoints"><path class="scatterpts" transform="translate(20,0)" style="opacity: 1; stroke-width: 0px; fill: rgb(21, 147, 114); fill-opacity: 1;" d="M3,0A3,3 0 1,1 0,-3A3,3 0 0,1 3,0Z"/></g></g></g><rect class="legendtoggle" style="fill: rgb(0, 0, 0); fill-opacity: 0;" x="0" y="-10.6" width="100" height="21.2"/></g><g class="traces" style="opacity: 1;" transform="translate(0,79.19999999999999)"><text class="legendtext" text-anchor="start" style="font-family: Arial; font-size: 14px; fill: rgb(0, 0, 0); fill-opacity: 1; white-space: pre;" x="40" y="5.46">ERMN S</text><g class="layers" style="opacity: 1;"><g class="legendfill"/><g class="legendlines"><path class="js-line" d="M5,0h30" style="fill: none; stroke: rgb(207, 153, 154); stroke-opacity: 1; stroke-width: 2px;"/></g><g class="legendsymbols"><g class="legendpoints"><path class="scatterpts" transform="translate(20,0)" style="opacity: 1; stroke-width: 0px; fill: rgb(207, 153, 154); fill-opacity: 1;" d="M3,0A3,3 0 1,1 0,-3A3,3 0 0,1 3,0Z"/></g></g></g><rect class="legendtoggle" style="fill: rgb(0, 0, 0); fill-opacity: 0;" x="0" y="-10.6" width="100" height="21.2"/></g><g class="traces" style="opacity: 1;" transform="translate(0,100.39999999999999)"><text class="legendtext" text-anchor="start" style="font-family: Arial; font-size: 14px; fill: rgb(0, 0, 0); fill-opacity: 1; white-space: pre;" x="40" y="5.46">JUN S</text><g class="layers" style="opacity: 1;"><g class="legendfill"/><g class="legendlines"><path class="js-line" d="M5,0h30" style="fill: none; stroke: rgb(153, 207, 207); stroke-opacity: 1; stroke-width: 2px;"/></g><g class="legendsymbols"><g class="legendpoints"><path class="scatterpts" transform="translate(20,0)" style="opacity: 1; stroke-width: 0px; fill: rgb(153, 207, 207); fill-opacity: 1;" d="M3,0A3,3 0 1,1 0,-3A3,3 0 0,1 3,0Z"/></g></g></g><rect class="legendtoggle" style="fill: rgb(0, 0, 0); fill-opacity: 0;" x="0" y="-10.6" width="100" height="21.2"/></g><g class="traces" style="opacity: 1;" transform="translate(0,121.6)"><text class="legendtext" text-anchor="start" style="font-family: Arial; font-size: 14px; fill: rgb(0, 0, 0); fill-opacity: 1; white-space: pre;" x="40" y="5.46">PHF1 S</text><g class="layers" style="opacity: 1;"><g class="legendfill"/><g class="legendlines"><path class="js-line" d="M5,0h30" style="fill: none; stroke: rgb(1, 95, 94); stroke-opacity: 1; stroke-width: 2px;"/></g><g class="legendsymbols"><g class="legendpoints"><path class="scatterpts" transform="translate(20,0)" style="opacity: 1; stroke-width: 0px; fill: rgb(1, 95, 94); fill-opacity: 1;" d="M3,0A3,3 0 1,1 0,-3A3,3 0 0,1 3,0Z"/></g></g></g><rect class="legendtoggle" style="fill: rgb(0, 0, 0); fill-opacity: 0;" x="0" y="-10.6" width="100" height="21.2"/></g></g></g><rect class="scrollbar" rx="20" ry="3" width="0" height="0" style="fill: rgb(128, 139, 164); fill-opacity: 1;" x="0" y="0"/></g><g class="g-gtitle"><text class="gtitle" style="font-family: Arial; font-size: 20px; fill: rgb(0, 0, 0); opacity: 1; font-weight: normal; white-space: pre;" x="350" y="25" text-anchor="middle" dy="0em">EDTA tubes</text></g><g class="g-xtitle"/><g class="g-ytitle"><text class="ytitle" transform="rotate(-90,36,210)" style="font-family: Arial; font-size: 17px; fill: rgb(0, 0, 0); opacity: 1; font-weight: normal; white-space: pre;" x="36" y="210" text-anchor="middle">Upregulation of gene expression (%)</text></g></g></svg>